C:\GBW_MyPrograms\KinderuniversiteitApp\Resultaten\EllisTymenTest\Maan\Maan_v1.mot
version=1
nRows=9
nColumns=29
inDegrees=yes
endheader
                time	         pelvis_tilt	           pelvis_tx	           pelvis_ty	       hip_flexion_l	       hip_flexion_r	        knee_angle_l	        knee_angle_r	       ankle_angle_l	       ankle_angle_r	    lumbar_extension	hamstrings_r/activation	bifemsh_r/activation	glut_max_r/activation	iliopsoas_r/activation	rect_fem_r/activation	  vasti_r/activation	gastroc_r/activation	 soleus_r/activation	tib_ant_r/activation	hamstrings_l/activation	bifemsh_l/activation	glut_max_l/activation	iliopsoas_l/activation	rect_fem_l/activation	  vasti_l/activation	gastroc_l/activation	 soleus_l/activation	tib_ant_l/activation	
          0.87888950	         -8.76011943	          1.16892303	          0.94041334	         16.78179702	         -4.64723104	         -2.02652469	        -21.70534341	        -12.83454858	        -17.62219130	          2.02637307	          0.05001188	          0.08708210	          0.05000126	          0.27005369	          0.14441310	          0.05000103	          0.05000514	          0.05000247	          0.09328654	          0.11145622	          0.07556778	          0.14756563	          0.05000087	          0.05000157	          0.05002766	          0.17180634	          0.05000481	          0.12445386	
          0.89646729	         -8.85220435	          1.19494798	          0.93958063	         15.63785039	         -3.70661493	         -3.01534390	        -23.42516776	        -11.01296473	        -17.19811686	          2.47682909	          0.06405263	          0.07577622	          0.05629471	          0.20886647	          0.11170043	          0.05000165	          0.05000628	          0.05000298	          0.09373529	          0.08620331	          0.16612981	          0.11941951	          0.05000076	          0.05000091	          0.05000111	          0.24363882	          0.05000225	          0.09625488	
          0.91404508	         -8.94418804	          1.22062422	          0.93929475	         14.30128840	         -2.68646718	         -3.59315508	        -24.85956765	         -9.43454456	        -16.81401824	          2.88328497	          0.07456730	          0.08971501	          0.05176392	          0.16154285	          0.13007317	          0.05000189	          0.05000604	          0.05000308	          0.09524272	          0.07367681	          0.21446919	          0.10711775	          0.05000064	          0.05000097	          0.05000204	          0.31488233	          0.05000164	          0.07444545	
          0.93162287	         -9.03610269	          1.24575893	          0.93993362	         12.94170309	         -1.61536501	         -3.96563526	        -25.95452754	         -8.53518824	        -16.46306779	          3.22060590	          0.06696753	          0.12395843	          0.05000717	          0.13125770	          0.14501935	          0.05000183	          0.05000769	          0.05000305	          0.09734901	          0.06998511	          0.27288848	          0.10053535	          0.05000072	          0.05000099	          0.05000147	          0.35833930	          0.07816283	          0.06078837	
          0.94920066	         -9.12738782	          1.27027041	          0.94181307	         11.64568642	         -0.51336154	         -4.25245076	        -26.65973415	         -8.43917711	        -16.13612490	          3.47781913	          0.05180737	          0.15659951	          0.05000291	          0.11773572	          0.15137659	          0.05000172	          0.05000710	          0.05000282	          0.09940729	          0.07121952	          0.32584688	          0.09853511	          0.05000080	          0.05000100	          0.05000123	          0.36759354	          0.10921451	          0.06061801	
          0.96677845	         -9.21643706	          1.29417368	          0.94507119	         10.45874678	          0.61172273	         -4.55366528	        -26.97211658	         -9.02884940	        -15.82730670	          3.65537202	          0.05000238	          0.16769565	          0.05000187	          0.11855335	          0.15170152	          0.05000224	          0.05000592	          0.05000284	          0.10048398	          0.07050591	          0.36840354	          0.09147097	          0.05000104	          0.05000109	          0.05000101	          0.34745018	          0.11744087	          0.05000261	
          0.98435624	         -9.30070143	          1.31753310	          0.94963063	          9.42279222	          1.76626669	         -4.96731249	        -26.96028858	        -10.17436289	        -15.53998665	          3.75869542	          0.05000134	          0.15834774	          0.05000123	          0.12196892	          0.14363843	          0.05000268	          0.05000501	          0.05000288	          0.10073906	          0.06932246	          0.39107679	          0.07969917	          0.05000156	          0.05000124	          0.05000092	          0.30778457	          0.11837970	          0.05000064	
          1.00193403	         -9.37764426	          1.34043903	          0.95523242	          8.58617820	          2.94876714	         -5.61166098	        -26.69663743	        -11.71653558	        -15.28281347	          3.79624550	          0.05000093	          0.14359442	          0.05000100	          0.12256933	          0.12882771	          0.05000235	          0.05000527	          0.05000312	          0.10035184	          0.06803772	          0.39220322	          0.06164437	          0.05000230	          0.05000134	          0.05000074	          0.25264084	          0.11669607	          0.05000035	
          1.01951182	         -9.44539451	          1.36298790	          0.96153887	          7.97837199	          4.14702436	         -6.56082747	        -26.23504811	        -13.54976818	        -15.06092966	          3.77770408	          0.05000093	          0.12698089	          0.05000111	          0.11431563	          0.10801792	          0.05000192	          0.05000611	          0.05000351	          0.09964608	          0.06851249	          0.36495465	          0.05413235	          0.07382306	          0.05000123	          0.05000056	          0.19539718	          0.11512169	          0.05000025	
